<?xml version="1.0" encoding="utf-8"?>
<!-- Generator: Adobe Illustrator 18.0.0, SVG Export Plug-In . SVG Version: 6.00 Build 0)  -->
<!DOCTYPE svg PUBLIC "-//W3C//DTD SVG 1.1//EN" "http://www.w3.org/Graphics/SVG/1.1/DTD/svg11.dtd">
<svg version="1.1" id="Layer_1" xmlns="http://www.w3.org/2000/svg" xmlns:xlink="http://www.w3.org/1999/xlink" x="0px" y="0px"
	 viewBox="0 0 132 26" enable-background="new 0 0 132 26" xml:space="preserve">
<g>
	<g>
		<polygon fill="#231F20" points="23.2,11.9 20.8,11.9 20.8,9.4 19.9,9.4 19.9,11.9 17.5,11.9 17.5,12.9 19.9,12.9 19.9,15.4 
			20.8,15.4 20.8,12.9 23.2,12.9 		"/>
		<polygon fill="#231F20" points="18.4,16.1 16.3,16.1 16.3,13.8 15.5,13.8 15.5,16.1 13.4,16.1 13.4,16.8 15.5,16.8 15.5,19.1 
			16.3,19.1 16.3,16.8 18.4,16.8 		"/>
		<polygon fill="#231F20" points="27.3,7.9 25.2,7.9 25.2,5.6 24.4,5.6 24.4,7.9 22.3,7.9 22.3,8.6 24.4,8.6 24.4,10.9 25.2,10.9 
			25.2,8.6 27.3,8.6 		"/>
		<polygon fill="#231F20" points="22.1,18.7 20.7,18.7 20.7,17.1 20,17.1 20,18.7 18.6,18.7 18.6,19.3 20,19.3 20,20.9 20.7,20.9 
			20.7,19.3 22.1,19.3 		"/>
		<polygon fill="#231F20" points="18.4,7.9 16.3,7.9 16.3,5.6 15.5,5.6 15.5,7.9 13.4,7.9 13.4,8.6 15.5,8.6 15.5,10.9 16.3,10.9 
			16.3,8.6 18.4,8.6 		"/>
		<polygon fill="#231F20" points="28.9,12.1 27.5,12.1 27.5,10.5 26.8,10.5 26.8,12.1 25.4,12.1 25.4,12.7 26.8,12.7 26.8,14.3 
			27.5,14.3 27.5,12.7 28.9,12.7 		"/>
		<polygon fill-rule="evenodd" clip-rule="evenodd" fill="#231F20" points="27.3,16.1 25.2,16.1 25.2,13.8 24.4,13.8 24.4,16.1 
			22.3,16.1 22.3,16.8 24.4,16.8 24.4,19.1 25.2,19.1 25.2,16.8 27.3,16.8 		"/>
		<polygon fill="#231F20" points="22,5.5 20.6,5.5 20.6,4 20.1,4 20.1,5.5 18.7,5.5 18.7,6 20.1,6 20.1,7.6 20.6,7.6 20.6,6 22,6 		
			"/>
		<polygon fill="#231F20" points="15.1,12.2 13.7,12.2 13.7,10.6 13.2,10.6 13.2,12.2 11.8,12.2 11.8,12.7 13.2,12.6 13.2,14.2 
			13.7,14.2 13.7,12.6 15.1,12.6 		"/>
	</g>
	<path fill-rule="evenodd" clip-rule="evenodd" fill="#231F20" d="M67,10.4c0.7-0.3,1.4-0.4,1.8-0.4c2.1,0,3.5,1.5,3.5,3.8
		c0,2.4-1.5,3.8-4.1,3.8c-0.9,0-1.8-0.2-2.7-0.5l0-10.5H67V10.4z M68.4,16.2c1.5,0,2.3-0.8,2.3-2.3c0-1.5-0.8-2.3-2.2-2.3
		c-0.6,0-1.1,0.2-1.5,0.4v4C67.5,16.1,67.9,16.2,68.4,16.2z"/>
	<rect x="78.8" y="5.1" fill-rule="evenodd" clip-rule="evenodd" fill="#231F20" width="1.5" height="13.8"/>
	<path fill-rule="evenodd" clip-rule="evenodd" fill="#231F20" d="M88.9,13h3.5c0-0.9-0.5-1.4-1.5-1.5C90.1,11.5,89.2,12,88.9,13z
		 M90.6,17.6c-2.4-0.2-3.5-1.9-3.5-3.9c0.1-2.1,1.5-3.7,3.6-3.7c2.2,0,3.5,1.6,3.4,4.1l-5.3,0c0.1,1.3,0.9,2,2,2.1
		c0.9,0.1,2.2-0.1,2.9-0.6v1.5C92.8,17.6,91.8,17.8,90.6,17.6z"/>
	<path fill-rule="evenodd" clip-rule="evenodd" fill="#231F20" d="M117,16.4c1,0,1.6-0.5,1.6-1.6v-4.6h1.6V15c0,1.6-1.2,2.6-3.2,2.6
		s-3.2-1-3.2-2.6v-4.8h1.6v4.6C115.4,15.9,116.1,16.4,117,16.4z"/>
	<path fill-rule="evenodd" clip-rule="evenodd" fill="#231F20" d="M55.2,17.6c-2.6,0-4.1-1.4-4.1-3.8c0-2.3,1.4-3.8,3.5-3.8
		c0.7,0,1.3,0.2,1.8,0.5V10h1.6l0,7.1C57.2,17.4,56.1,17.6,55.2,17.6z M55,16.2c0.4,0,0.8,0,1.3-0.2l0-4c-0.5-0.3-1-0.5-1.5-0.5
		c-1.3,0-2.2,0.9-2.2,2.3C52.7,15.3,53.5,16.2,55,16.2z"/>
	<path fill-rule="evenodd" clip-rule="evenodd" fill="#231F20" d="M104.5,17.6c-2.6,0-4.1-1.4-4.1-3.8c0-2.3,1.4-3.8,3.5-3.8
		c0.7,0,1.3,0.2,1.8,0.5V10h1.6l0,7.1C106.6,17.4,105.5,17.6,104.5,17.6z M104.3,16.2c0.3,0,0.8,0,1.3-0.2l0-4
		c-0.5-0.3-1-0.5-1.5-0.5c-1.3,0-2.2,0.9-2.2,2.3C102,15.3,102.9,16.2,104.3,16.2z"/>
	<polygon fill="#231F20" points="39.4,7.1 41,7.1 41,11.5 45.2,11.5 45.2,12.9 41,12.9 41,17.7 39.4,17.7 39.4,12.9 35.3,12.9 
		35.3,11.5 39.4,11.5 	"/>
</g>
</svg>
